<?xml version="1.0" encoding="UTF-8"?>
<svg id="Layer_1" data-name="Layer 1" xmlns="http://www.w3.org/2000/svg" viewBox="0 0 243.07 62.98">
  <defs>
    <style>
      .cls-1 {
        fill: #fff;
      }
    </style>
  </defs>
  <g>
    <path class="cls-1" d="M51.49,13.03h22.09c3.11,0,6.09,1.46,7.83,4.04.79,1.17,1.3,2.51,1.47,3.92.28,2.41-.47,4.81-1.96,6.72-1.77,2.26-4.54,3.5-7.41,3.5h-17.33c-1.77,0-2.65,2.14-1.4,3.39l27.65,27.65c.37.37.88.58,1.41.58l9.08-.02c1.77,0,2.65-2.14,1.4-3.39-5.25-5.25-10.5-10.5-15.74-15.74-1.01-1.01-.64-2.69.67-3.24,7.52-3.12,12.77-10.11,13.39-18.04.51-6.56-2.21-12.92-7.02-17.32C81.96,1.76,77.16,0,72.23,0H1.99C.22,0-.66,2.13.58,3.38c12.19,12.21,53.45,53.53,58.83,58.92.37.37.88.58,1.41.58l11.79-.03c1.77,0,2.65-2.14,1.4-3.39l-23.93-23.93c-.37-.37-.58-.88-.58-1.4V15.01c0-1.1.89-1.98,1.98-1.98Z"/>
    <path class="cls-1" d="M36.19,48.77v12.23c0,1.1.89,1.98,1.98,1.98h12.16c1.77,0,2.65-2.13,1.4-3.39-3.43-3.44-8.72-8.74-12.16-12.23-1.25-1.26-3.39-.38-3.39,1.4Z"/>
  </g>
  <g>
    <g>
      <path class="cls-1" d="M110.46,46.61h-1.51l1-5.18-5.7,4.47-3.97-4.47-1,5.18h-1.51l1.33-6.84h1.72l3.78,4.32,5.46-4.32h1.72l-1.33,6.84Z"/>
      <path class="cls-1" d="M124.4,39.76c.18,0,.35.04.51.11.16.07.29.17.4.3.11.13.18.28.23.47.04.19.04.4,0,.62l-.75,3.85c-.05.24-.13.46-.25.64-.12.18-.25.34-.41.47-.16.13-.33.22-.51.29-.19.07-.37.1-.55.1h-9.71c-.19,0-.36-.03-.51-.1-.16-.07-.29-.16-.4-.29-.11-.13-.18-.28-.23-.47-.04-.18-.04-.4,0-.64l.75-3.85c.05-.23.13-.45.24-.64.11-.19.25-.35.4-.47.16-.13.32-.22.51-.29.18-.07.37-.1.56-.1h9.71ZM122.75,45.11c.14,0,.28-.06.4-.18.13-.12.21-.27.25-.46l.51-2.58c.04-.19.02-.34-.04-.46-.07-.12-.18-.18-.35-.18h-8.49c-.19,0-.33.06-.44.18-.1.12-.17.27-.21.46l-.51,2.58c-.04.19-.02.34.06.46.08.12.18.18.32.18h8.51Z"/>
      <path class="cls-1" d="M127.38,39.76h12.56l-.28,1.5h-5.53l-1.04,5.35h-1.51l1.04-5.35h-5.52l.28-1.5Z"/>
      <path class="cls-1" d="M152.62,39.76c.18,0,.35.04.51.11.16.07.29.17.4.3.11.13.18.28.23.47.04.19.04.4,0,.62l-.75,3.85c-.05.24-.13.46-.25.64-.12.18-.25.34-.41.47-.16.13-.33.22-.51.29-.19.07-.37.1-.55.1h-9.71c-.19,0-.36-.03-.51-.1-.16-.07-.29-.16-.4-.29-.11-.13-.18-.28-.23-.47-.04-.18-.04-.4,0-.64l.75-3.85c.05-.23.13-.45.24-.64.11-.19.25-.35.4-.47.16-.13.32-.22.51-.29.18-.07.37-.1.56-.1h9.71ZM150.97,45.11c.14,0,.28-.06.4-.18.13-.12.21-.27.25-.46l.51-2.58c.04-.19.02-.34-.04-.46-.07-.12-.18-.18-.35-.18h-8.49c-.19,0-.33.06-.44.18-.1.12-.17.27-.21.46l-.51,2.58c-.04.19-.02.34.06.46.08.12.18.18.32.18h8.51Z"/>
      <path class="cls-1" d="M167.24,39.87c.16.07.29.17.4.3.11.13.18.28.23.47.04.19.04.4,0,.62l-.23,1.17c-.08.4-.25.73-.49.97s-.53.4-.85.48l.54,2.72h-1.54l-.68-2.68h-8.33l-.52,2.68h-1.51l1.33-6.84h11.13c.18,0,.35.04.51.11ZM156.6,42.43h9c.14,0,.27-.03.39-.09.12-.06.2-.19.23-.37l.03-.16c.05-.2.03-.34-.06-.42-.08-.08-.21-.13-.38-.13h-8.99l-.23,1.17Z"/>
      <path class="cls-1" d="M179.19,45.11c.14,0,.27-.04.4-.13.12-.08.2-.22.24-.41l.03-.13c.04-.2.02-.33-.06-.41-.08-.08-.2-.11-.37-.11h-9.12c-.19,0-.36-.03-.51-.1s-.29-.16-.4-.29c-.11-.13-.18-.28-.22-.47-.04-.18-.03-.4.01-.64l.23-1.17c.09-.48.31-.85.63-1.11.33-.26.68-.39,1.06-.39h11.15l-.28,1.5h-10.53c-.17,0-.31.04-.41.11-.1.07-.17.2-.21.4l-.03.13c-.04.19,0,.32.08.41.09.08.21.13.35.13h9.1c.38,0,.68.14.9.41.23.27.3.64.21,1.1l-.23,1.17c-.1.48-.32.85-.65,1.11-.33.26-.68.39-1.06.39h-11.15l.3-1.5h10.51Z"/>
      <path class="cls-1" d="M195.46,39.87c.16.07.29.17.4.3.11.13.18.28.23.47.04.19.04.4,0,.62l-.23,1.17c-.05.24-.13.46-.25.64-.12.18-.25.34-.41.47-.16.13-.33.22-.52.29s-.37.1-.55.1h-9.62l-.52,2.68h-1.51l1.33-6.84h11.13c.18,0,.35.04.51.11ZM184.82,42.43h9c.13,0,.26-.03.38-.09.12-.06.2-.19.24-.37l.03-.17c.05-.2.03-.34-.06-.42-.09-.08-.21-.12-.37-.12h-8.99l-.23,1.17Z"/>
      <path class="cls-1" d="M209.06,39.76c.18,0,.35.04.51.11.16.07.29.17.4.3.11.13.18.28.23.47.04.19.04.4,0,.62l-.75,3.85c-.05.24-.13.46-.25.64-.12.18-.25.34-.41.47-.16.13-.33.22-.51.29-.19.07-.37.1-.55.1h-9.71c-.19,0-.36-.03-.51-.1-.16-.07-.29-.16-.4-.29-.11-.13-.18-.28-.23-.47-.04-.18-.04-.4,0-.64l.75-3.85c.05-.23.13-.45.24-.64.11-.19.25-.35.4-.47.16-.13.32-.22.51-.29.18-.07.37-.1.56-.1h9.71ZM207.41,45.11c.14,0,.28-.06.4-.18.13-.12.21-.27.25-.46l.51-2.58c.04-.19.02-.34-.04-.46-.07-.12-.18-.18-.35-.18h-8.49c-.19,0-.33.06-.44.18-.1.12-.17.27-.21.46l-.51,2.58c-.04.19-.02.34.06.46.08.12.18.18.32.18h8.51Z"/>
      <path class="cls-1" d="M223.68,39.87c.16.07.29.17.4.3.11.13.18.28.23.47.04.19.04.4,0,.62l-.23,1.17c-.08.4-.25.73-.49.97s-.53.4-.85.48l.54,2.72h-1.54l-.68-2.68h-8.33l-.52,2.68h-1.51l1.33-6.84h11.13c.18,0,.35.04.51.11ZM213.04,42.43h9c.14,0,.27-.03.39-.09.12-.06.2-.19.23-.37l.03-.16c.05-.2.03-.34-.06-.42-.08-.08-.21-.13-.38-.13h-8.99l-.23,1.17Z"/>
      <path class="cls-1" d="M226.15,39.76h12.56l-.28,1.5h-5.53l-1.04,5.35h-1.51l1.04-5.35h-5.52l.28-1.5Z"/>
    </g>
    <g>
      <path class="cls-1" d="M112.47,29.1h-6.49l-1.01,5.02h-5.32l3.55-17.75h17.09c.47,0,.91.1,1.31.29.4.19.73.46.99.79.26.33.45.71.57,1.13.12.42.13.86.05,1.32l-1.37,6.82c-.14.69-.47,1.26-1.01,1.71-.54.45-1.17.67-1.88.67h-1.14l2.26,5.02h-5.32l-2.26-5.02ZM116.37,24.94c.13,0,.26-.04.37-.13.11-.08.18-.19.22-.33l.63-3.27c.03-.19,0-.35-.11-.49-.11-.14-.26-.22-.44-.22h-12.47l2.94.89-.71,3.55h9.58Z"/>
      <path class="cls-1" d="M137.67,29.1h-7.68l-1.01,5.02h-5.32l3.07-15.36c.14-.71.48-1.28,1.03-1.72.55-.44,1.18-.66,1.89-.66h12.29c.47,0,.91.1,1.31.29.4.19.73.46.99.79.26.33.45.71.57,1.13.12.42.13.86.03,1.32l-2.84,14.22h-5.32l1.01-5.02ZM130.8,24.94h7.71l.74-3.73c.03-.19,0-.35-.13-.49-.12-.14-.27-.22-.46-.22h-6.46c-.34,0-.53.16-.58.48l-.81,3.95Z"/>
      <path class="cls-1" d="M164.21,16.38c.46,0,.88.1,1.28.29.4.19.73.46,1,.79.27.33.46.71.58,1.13.12.42.13.86.03,1.32l-.48,2.38h-5.32l.23-1.06c.03-.19,0-.35-.13-.49-.12-.14-.27-.22-.46-.22h-7.07c-.14,0-.26.05-.37.14-.11.09-.18.21-.22.34l-1.65,8.29c-.03.19,0,.35.13.49.12.14.27.22.46.22h6.95c.3,0,.5-.16.58-.48l.25-1.29h5.32l-.71,3.52c-.14.71-.47,1.28-1.01,1.72-.54.44-1.17.66-1.88.66h-13.21c-.41,0-.79-.08-1.14-.25-.35-.17-.65-.4-.89-.7-.24-.3-.41-.63-.51-1-.1-.37-.11-.76-.03-1.17l2.46-12.24c.13-.71.47-1.28,1.01-1.72.54-.44,1.17-.66,1.88-.66h12.9Z"/>
      <path class="cls-1" d="M184.31,27.33h-9.46l-.53,2.66h11.23l-.84,4.13h-16.55l3.55-17.75h16.55l-.81,4.13h-11.26l-.53,2.66h9.48l-.84,4.16Z"/>
      <path class="cls-1" d="M188.11,30.22l.28-1.42h5.32l-.1.48c-.03.19,0,.35.13.49.12.14.27.22.46.22h9.99l-2.97-.89.28-1.37c.03-.19,0-.35-.13-.49-.12-.14-.27-.22-.46-.22h-8.21c-.51,0-.98-.11-1.42-.33-.44-.22-.8-.51-1.09-.86-.29-.35-.49-.77-.62-1.24-.13-.47-.14-.96-.04-1.47l.81-4.13c.15-.76.53-1.39,1.13-1.88.6-.49,1.29-.74,2.07-.74h11.71c.51,0,.98.11,1.42.33.44.22.8.51,1.09.86.29.35.5.76.63,1.23.13.46.15.95.05,1.46l-.3,1.44h-5.32l.1-.48c.03-.19,0-.35-.13-.49-.12-.14-.27-.22-.46-.22h-10.09l2.94.89-.2,1.06c-.03.19,0,.35.13.49.12.14.27.22.46.22h7.96l.48.03c.49.03.93.16,1.33.39.4.23.73.52,1,.87.27.35.46.76.58,1.2.12.45.13.92.03,1.41l-.89,4.44c-.15.76-.53,1.39-1.13,1.88-.6.49-1.29.74-2.07.74h-11.59c-.51,0-.98-.11-1.42-.33-.44-.22-.8-.51-1.09-.86-.29-.35-.49-.77-.62-1.24-.13-.47-.14-.96-.04-1.47Z"/>
      <path class="cls-1" d="M209.53,34.12l3.55-17.75h5.32l-3.55,17.75h-5.32Z"/>
      <path class="cls-1" d="M243.07,16.38l-3.55,17.75h-9.15l-2.81-14.04-2.81,14.04h-5.32l3.55-17.75h9.18l2.81,14.04,2.79-14.04h5.32Z"/>
    </g>
  </g>
</svg>