<?xml version="1.0" encoding="UTF-8"?>
<svg id="Layer_1" data-name="Layer 1" xmlns="http://www.w3.org/2000/svg" viewBox="0 0 172.65 33.84">
  <defs>
    <style>
      .cls-1 {
        fill-rule: evenodd;
      }

      .cls-1, .cls-2 {
        fill: #fff;
      }
    </style>
  </defs>
  <path class="cls-1" d="M96.25,27.01c-2.64,0-4.77-.72-6.4-2.17-.77-.65-1.4-1.46-1.85-2.37-.45-.91-.7-1.9-.74-2.91h4.06c.05.55.22,1.07.5,1.55.28.47.67.87,1.13,1.17.96.65,2.1.99,3.27.97,1.06.04,2.1-.25,2.97-.85.37-.25.67-.59.87-.99.2-.4.31-.84.29-1.28,0-1.66-1.13-2.86-3.4-3.6l-3.02-1.01c-4.03-1.27-6.04-3.64-6.04-7.11-.04-.94.14-1.88.51-2.74.38-.86.95-1.63,1.67-2.24,1.45-1.22,3.35-1.83,5.68-1.84,2.43,0,4.36.7,5.79,2.1,1.39,1.29,2.24,3.05,2.4,4.94h-4.07c-.19-.99-.75-1.86-1.56-2.45-.77-.54-1.69-.82-2.64-.82-.94-.04-1.87.24-2.64.78-.33.23-.61.54-.8.9-.19.36-.29.76-.29,1.16-.02.39.04.78.18,1.15.14.37.35.7.61.98.72.65,1.59,1.12,2.54,1.37l3.06.97c4.07,1.32,6.11,3.76,6.11,7.31.03.96-.16,1.92-.56,2.8-.39.88-.98,1.66-1.72,2.28-1.51,1.3-3.48,1.96-5.91,1.96Z"/>
  <path class="cls-1" d="M116.61,23.48c.7.02,1.39-.11,2.03-.39.64-.28,1.22-.69,1.68-1.21.94-1.1,1.46-2.5,1.46-3.95s-.52-2.85-1.46-3.95c-.46-.52-1.04-.93-1.68-1.21-.64-.28-1.34-.41-2.03-.39-.71-.02-1.4.11-2.05.39s-1.23.69-1.7,1.21c-.94,1.1-1.45,2.5-1.45,3.95s.52,2.85,1.45,3.95c.47.52,1.05.94,1.7,1.21.65.28,1.35.41,2.05.39h0ZM111.71,33.84h-3.81V9.27h3.81v2.32c.61-.8,1.4-1.45,2.31-1.89,1.01-.52,2.13-.78,3.27-.78,1.13-.02,2.26.2,3.29.66,1.04.46,1.96,1.13,2.71,1.98,1.56,1.76,2.41,4.03,2.41,6.38s-.86,4.61-2.41,6.38c-.75.85-1.67,1.52-2.7,1.98-1.04.45-2.16.68-3.29.65-1.14,0-2.26-.26-3.27-.78-.91-.44-1.7-1.09-2.31-1.89v9.56Z"/>
  <path class="cls-1" d="M136.75,23.4c.7.02,1.39-.11,2.04-.39.64-.27,1.22-.68,1.69-1.19.95-1.08,1.48-2.46,1.48-3.9s-.52-2.82-1.48-3.9c-.47-.51-1.05-.92-1.69-1.19-.64-.27-1.34-.4-2.04-.39-.7-.02-1.4.11-2.05.38-.65.27-1.23.68-1.71,1.19-.95,1.08-1.48,2.46-1.48,3.9s.52,2.82,1.48,3.9c.48.52,1.06.92,1.71,1.19.65.27,1.35.4,2.05.38h0ZM143.23,24.31c-1.49,1.51-3.45,2.46-5.56,2.68-2.11.22-4.23-.29-6-1.46-1.77-1.17-3.08-2.91-3.7-4.93-.62-2.02-.52-4.2.28-6.15.81-1.96,2.27-3.57,4.14-4.57,1.87-1,4.03-1.32,6.11-.9,2.08.41,3.95,1.54,5.29,3.18,1.34,1.64,2.07,3.69,2.06,5.81.02,1.18-.21,2.36-.66,3.45-.45,1.09-1.12,2.09-1.96,2.92v-.02Z"/>
  <path class="cls-1" d="M148.95,26.6V9.27h3.81v3.08c.32-.96.94-1.79,1.79-2.35.81-.58,1.79-.9,2.79-.9.5-.01,1.01.04,1.5.14v3.92c-.61-.22-1.26-.33-1.91-.32-.57,0-1.12.12-1.64.36-.51.24-.96.6-1.32,1.04-.87,1.11-1.3,2.5-1.21,3.9v8.45h-3.81Z"/>
  <path class="cls-1" d="M169.79,26.77c-1.56.07-3.1-.46-4.29-1.47-1.09-.98-1.63-2.41-1.63-4.28v-8.35h-3.61v-3.4h3.61v-4.82h3.81v4.82h4.97v3.39h-4.98v7.73c0,1.09.24,1.82.7,2.27.62.5,1.42.75,2.22.67.7.02,1.4-.09,2.05-.35v3.4c-.92.27-1.88.4-2.85.39Z"/>
  <path class="cls-1" d="M16.43,17.15c-.35.85-.87,1.62-1.52,2.27-.65.65-1.43,1.16-2.28,1.51-.89.37-1.84.55-2.8.54h-3.99V7.1h4c.96-.01,1.92.17,2.8.54.85.37,1.62.9,2.27,1.56.65.66,1.16,1.45,1.51,2.31.37.9.55,1.87.54,2.85,0,.96-.18,1.91-.54,2.8h0ZM19.27,5.57c-1.21-1.13-2.61-2.02-4.14-2.62-1.63-.65-3.36-.98-5.11-.97H0v24.61h10.01c1.75,0,3.49-.31,5.11-.95,1.54-.6,2.94-1.48,4.14-2.6,1.15-1.11,2.07-2.44,2.72-3.9.68-1.5,1.02-3.13,1.02-4.78.01-1.68-.33-3.35-1.02-4.89-.65-1.46-1.57-2.78-2.72-3.9h0Z"/>
  <path class="cls-1" d="M30.33,15.43l.05-.19c.25-.9.78-1.7,1.51-2.28.74-.55,1.64-.83,2.55-.81.92-.01,1.81.29,2.53.85.73.58,1.28,1.36,1.56,2.25l.07.2h-8.28ZM41.28,10.61c-.86-.92-1.9-1.64-3.06-2.14-1.16-.49-2.4-.74-3.66-.73-1.31,0-2.6.24-3.81.73-1.15.47-2.19,1.16-3.07,2.03-.87.88-1.57,1.93-2.05,3.07-.51,1.19-.76,2.47-.76,3.77,0,1.3.26,2.58.79,3.77.51,1.16,1.25,2.21,2.17,3.09.92.88,2.01,1.56,3.19,2.01,1.27.49,2.62.74,3.98.73,1.42.02,2.83-.2,4.18-.66,1.26-.48,2.44-1.17,3.47-2.04l-3.58-3.18c-.46.43-1,.76-1.59.99-.7.26-1.43.39-2.18.39-1.05.02-2.08-.28-2.95-.86-.81-.55-1.45-1.32-1.84-2.22l-.09-.21h13.52v-1.28c0-1.38-.23-2.76-.71-4.05-.43-1.19-1.09-2.28-1.95-3.21h0Z"/>
  <path class="cls-1" d="M46.58,26.59h5.48V.15h-5.48v26.44Z"/>
  <path class="cls-1" d="M73.47,6.01c.7,0,1.37-.25,1.91-.69s.9-1.06,1.03-1.74c.13-.68.03-1.39-.3-2-.33-.61-.86-1.09-1.51-1.35-.64-.26-1.36-.3-2.03-.09-.67.2-1.24.63-1.63,1.21-.39.58-.56,1.27-.49,1.96.07.69.38,1.34.87,1.83.28.28.61.51.98.66s.76.23,1.16.22Z"/>
  <path class="cls-2" d="M58.35,26.59h5.48v-8.57l-5.48,4.41v4.16Z"/>
  <path class="cls-2" d="M76.21,8.07l-5.6,4.5h.13v8.6l5.48-4.41v-8.69Z"/>
  <path class="cls-2" d="M70.73,21.17v5.42h5.48v-9.83l-5.48,4.41Z"/>
  <path class="cls-2" d="M63.84,8.06v-1.18c-.02-.32.03-.64.16-.94.13-.3.33-.56.58-.76.62-.4,1.35-.59,2.09-.54.36,0,.73.02,1.09.05.29,0,.64.08,1.03.16V.38c-.36-.08-.8-.15-1.31-.22-.54-.07-1.09-.1-1.63-.1-2.42,0-4.3.58-5.59,1.74-1.29,1.16-1.93,2.83-1.93,4.98v1.29h-4.09v4.51h4.13v9.85l5.48-4.41v-5.43h6.77l5.6-4.51h-12.37Z"/>
</svg>