<?xml version="1.0" encoding="UTF-8"?>
<svg id="Layer_1" data-name="Layer 1" xmlns="http://www.w3.org/2000/svg" viewBox="0 0 876.8 877.11">
  <defs>
    <style>
      .cls-1 {
        fill: #fff;
      }
    </style>
  </defs>
  <path class="cls-1" d="M403.9.61C248.9,13.61,114.6,104.51,45.1,243.31c-18,35.7-32.5,80.2-39.1,119.3-5,29.4-6,42.4-6,76s1,46.8,6,76c13.1,77,49,152.4,101,212,10.4,12,35.1,36.5,46.9,46.5,59.4,50.7,133.8,85.5,210.5,98.4,27.8,4.7,39.2,5.6,74,5.6s46.8-.9,77.5-6.1c56.6-9.7,116.3-33.5,164.5-65.7,26.7-17.9,46.4-34,69-56.7,62.6-62.7,103.8-140.3,120.5-226.9,6-31.3,6.9-42.5,6.9-83.1s-1-53.2-8-88c-21.4-106.9-82.6-202-172-267.3C635.7,38.71,566.8,11.81,488.4,2.11c-14.6-1.9-69.1-2.8-84.5-1.5ZM484.4,22.01c83.8,10.1,155.6,40.4,220.2,92.8,15.3,12.4,47.2,44.5,59.4,59.8,55.3,69.3,85.5,145.5,92.5,233.4,1.5,18.6.7,60.1-1.5,78.1-3.8,30.8-9.5,56.2-19,84.8-13,39.2-31.1,75.3-54,107.7-9,12.8-23.4,31-24.4,31-.7,0-6.3-10.8-48.7-94-14.7-28.9-29.2-57-32.2-62.4-3-5.5-16.3-31.4-29.5-57.5-13.2-26.2-29.8-58.9-36.8-72.6-15.9-31.1-92.2-180.2-107.5-210-6.2-12.1-23.1-45.2-37.5-73.5-14.5-28.3-26.4-51.6-26.6-51.8-.1-.2-7,13.1-15.4,29.5s-18.5,36.1-22.5,43.8-12.8,24.8-19.5,38c-6.8,13.2-16.2,31.6-21,41-4.8,9.3-16.1,31.4-25,49s-19.5,38.3-23.5,46-13.7,26.6-21.5,42-16.2,31.6-18.5,36c-2.4,4.4-17.4,34.1-33.5,66s-32.3,63.6-36,70.5c-6.6,12.4-13.9,26.6-58.9,114.5-12.6,24.7-23.4,45-23.9,45-2,0-17.6-20.2-29.9-38.5-38.4-57.3-61.6-123.3-68.5-194.5-1.8-18.7-1.5-61.5.6-80.3,5.5-50.3,17.7-93.7,39.1-138.7,21.6-45.7,57.7-94.2,95.1-128,70.5-63.6,154.8-100.2,250.4-108.4,15.7-1.4,62.1-.6,78,1.3ZM449,417.61c1.9,8.5,6.2,26.7,9.6,40.5,3.3,13.7,8.6,36.5,11.8,50.5s8.6,37,12,51c13.7,57.6,22.1,93.3,25,106.5,3.5,15.6,10.6,46.2,21,90.5,17.3,73.3,20,85.1,20,85.8,0,1.1-19.3,5.7-36.4,8.7-14.6,2.6-29.6,4.2-29.6,3.2,0-.4-2.2-12.4-5-26.8-2.7-14.4-5-26.4-5-26.8,0-.3-15.1-.6-33.5-.6-28.9,0-33.6.2-34,1.5-.2.8-2.5,12.3-5,25.5s-4.7,24.9-5,26.1c-.4,1.9-.8,2-7.7,1.2-18.5-2.1-56.2-9.7-57.9-11.6-.3-.4.7-6.3,2.3-13.2,19.4-82,35.1-149.1,37.8-162,1.2-5.8,5-22.2,8.5-36.5s7.1-29.6,8.1-34c.9-4.4,4.6-19.9,8.1-34.5s8.6-36.2,11.3-48,7.1-30.7,9.9-42c2.7-11.3,6.8-28.8,9.1-39,4.1-18.1,11-46.6,13.2-54.5l1.1-4,3.4,13.5c1.8,7.4,4.9,20.5,6.9,29ZM249.5,615.21c2.5,2.7,22.6,18.1,29.4,22.6,17.1,11.1,37.4,21.7,53.3,27.9,6.1,2.3,11.2,4.8,11.2,5.3-.1.6-2.7,9.4-5.9,19.6-3.7,11.8-6.4,18.6-7.3,18.8-2.2.4-23.1-8.3-36.5-15.3-10.8-5.6-12.4-6.2-13.1-4.7-.5.9-2.4,5.5-4.2,10.1-3.2,8.2-3.3,8.4-1.4,9.8,3.7,2.7,23.1,12.1,35.9,17.4,7.2,2.9,13.1,5.3,13.2,5.4.4.1-11.6,38.7-12.2,39.3-.9.9-23.7-8.6-39.8-16.6-8.2-4.1-15-7.2-15.1-7-.8,1-6.6,16.5-6.6,17.6,0,1.4,29.7,16.2,44.3,22,5.4,2.2,10,4.2,10.3,4.5.6.6-10.4,37.7-11.6,39-1.6,1.8-42.2-16.6-62.5-28.3-6-3.4-16.1-9.7-22.4-13.8-11.2-7.4-34.5-24.5-35.5-26.1-.3-.4,5.8-13.8,13.6-29.7,7.7-15.9,20-41.3,27.3-56.4,27.7-57.7,30.9-64,32-64,.6,0,2.2,1.2,3.6,2.6ZM589.9,657.61c2.3,5.8,10.6,26,18.4,45,7.9,19,16.5,40.2,19.3,47.2l5.1,12.7,3.1-1.6c7.5-3.8,28.6-18.5,48.2-33.6l2.3-1.8,8.6,17.7c4.7,9.7,8.5,18.3,8.5,19,0,2.8-34.7,27.5-55.5,39.4-22,12.7-62.8,31.2-64.5,29.3-.5-.4-3.1-8.5-6-17.8-5-16.2-8.1-26.5-29.5-95-12-38.6-14.7-47.7-14.3-47.9.2-.1,6.8-2.9,14.8-6.1s19.2-8.4,25-11.6,10.9-5.7,11.4-5.6c.5.2,2.8,5,5.1,10.7Z"/>
  <path class="cls-1" d="M392,67.21c-64.9,8.9-124.1,34.4-176.5,76.3-13.7,10.9-41.2,38.5-52.5,52.6-49,61.4-76.2,135.9-78.2,214-1.2,48.4,8.6,99.9,27.3,144.5,2,4.7,4,8.9,4.4,9.4.6.7,23.9-37.6,41.5-68.2,8.7-15.2,24.1-41.4,41-69.7l14.9-25,.6-25.5c.7-27.8,2.6-41.3,8.7-62.5,8.9-30.5,26.6-62.5,46.9-84.7,3.2-3.4,6.3-6.9,6.8-7.6,2.2-2.9,19.6-17.9,28-24.2,10.1-7.5,25-16.5,37.2-22.4l8.1-4,9.3-15.5c5.1-8.6,12.6-21.2,16.8-28.1,27.5-45.8,33.5-55.8,34.7-58.3l1.5-2.7-5.3.1c-2.9.1-9.8.7-15.2,1.5Z"/>
  <path class="cls-1" d="M465.4,66.41c0,1.1,19.1,33.6,28,47.7,3.2,4.9,9.8,16,14.7,24.5,18.6,31.8,18,31.1,25.8,34.8,38.5,18.5,71.7,48,95,84.2,10.9,17,22.3,43.6,27.4,64,5.1,20.6,6.4,31.5,6.6,55.5l.2,23.1,4.3,7.4c2.4,4.1,11.5,19.6,20.3,34.5,8.8,14.8,18.3,31,21.2,36,16.2,27.9,49.9,85.1,50.6,85.9.5.6,2.2-2.1,4-6,12-26.2,22.2-64.1,26.5-97.9,2.3-17.4,2.6-63.4.6-79.5-7.4-60.1-26-111.2-57.5-158.5-54.4-81.5-139.6-136.7-236.1-153-17.5-2.9-31.6-4.2-31.6-2.7Z"/>
  <path class="cls-1" d="M438.1,627.61c-.7,2.4-4.7,23-10.1,52-1.4,7.4-4.6,24.1-7,37-2.5,12.8-4.3,23.6-4,24,.8.8,42.1.6,42.9-.2.7-.6-5.1-31.9-17.9-98.3-2.3-11.8-3.5-16.2-3.9-14.5Z"/>
</svg>