<svg width="46" height="84" viewBox="0 0 46 84" fill="none" xmlns="http://www.w3.org/2000/svg">
<path d="M44.7966 45.7424C44.0058 42.6122 41.5398 38.3894 34.2846 36.0539C30.2247 34.7453 24.8403 34.0811 18.282 34.0811H-0.015625V49.0931H18.2778C19.7166 49.0931 21.0087 49.1297 22.1583 49.1909C26.2017 49.4111 26.6907 51.335 23.2344 53.4503C22.2519 54.0536 21.135 54.6977 19.8675 55.3823L-0.015625 66.1145V83.1728L26.9964 68.597C32.7681 65.4827 37.1907 62.3444 40.1418 59.2628C45.4203 53.7602 45.5874 48.8729 44.7966 45.7424Z" fill="white"/>
<path fill-rule="evenodd" clip-rule="evenodd" d="M-0.015625 38.9856L20.8638 34.1133C26.2644 34.2675 30.7707 34.9176 34.2846 36.0501C41.3253 38.3166 43.8558 42.3603 44.7219 45.4581L25.1379 50.0283C24.6258 49.5717 23.6262 49.2672 22.1583 49.1871C21.0087 49.1262 19.7166 49.0893 18.2778 49.0893H-0.015625V38.9856Z" fill="url(#paint0_linear_364_3757)"/>
<path d="M44.7966 11.6616C44.0058 8.53116 41.5398 4.30839 34.2846 1.9728C30.2205 0.66441 24.8361 0 18.282 0H-0.015625V15.012H18.2778C19.7166 15.012 21.0087 15.0489 22.1583 15.1098C26.2017 15.33 26.6907 17.2539 23.2344 19.3695C22.2519 19.9725 21.135 20.6166 19.8675 21.3015L-0.015625 32.0337V49.092L26.9964 34.5159C32.7681 31.4019 37.1907 28.2633 40.1418 25.1817C45.4203 19.6791 45.5874 14.792 44.7966 11.6616Z" fill="white"/>
<defs>
<linearGradient id="paint0_linear_364_3757" x1="24.4344" y1="50.1972" x2="20.6904" y2="34.1571" gradientUnits="userSpaceOnUse">
<stop stop-color="#B4B4B4" stop-opacity="0"/>
<stop offset="1" stop-color="white"/>
</linearGradient>
</defs>
</svg>
