<?xml version="1.0" encoding="UTF-8"?>
<svg id="Layer_1" data-name="Layer 1" xmlns="http://www.w3.org/2000/svg" xmlns:xlink="http://www.w3.org/1999/xlink" viewBox="0 0 2076.4 213.91">
  <defs>
    <style>
      .cls-1 {
        fill: #ed8123;
      }

      .cls-2 {
        fill: none;
      }

      .cls-3, .cls-4 {
        fill-rule: evenodd;
      }

      .cls-3, .cls-5, .cls-6, .cls-7 {
        fill: #fff;
      }

      .cls-8, .cls-4 {
        fill: #010101;
      }

      .cls-9 {
        fill: #fbb03a;
      }

      .cls-5 {
        font-family: Ezra-Regular, Ezra;
        font-size: 30.67px;
      }

      .cls-10 {
        fill: #272626;
      }

      .cls-11 {
        clip-path: url(#clippath-1);
      }

      .cls-12 {
        clip-path: url(#clippath-2);
      }

      .cls-13 {
        fill: #217cc1;
      }

      .cls-14 {
        letter-spacing: -.05em;
      }

      .cls-15 {
        letter-spacing: -.04em;
      }

      .cls-16 {
        clip-path: url(#clippath);
      }

      .cls-7 {
        font-family: Ezra-ExtraBold, Ezra;
        font-size: 43.23px;
        font-weight: 700;
      }
    </style>
    <clipPath id="clippath">
      <rect class="cls-2" x="0" width="2076.4" height="213.91"/>
    </clipPath>
    <clipPath id="clippath-1">
      <rect class="cls-2" x="0" width="2076.4" height="213.91"/>
    </clipPath>
    <clipPath id="clippath-2">
      <rect class="cls-2" x="1441.18" y="45.71" width="184.73" height="144.77"/>
    </clipPath>
  </defs>
  <g class="cls-16">
    <path class="cls-10" d="M67.18,192.79l-4.38,13.58c-.57,1.67-.57,1.7-.93,2.11-.37.44-.89.63-1.84.63-1.11,0-1.46-.22-1.39-.91.06-.5.16-.85.78-2.77l.14-.44h-5.25c-.72,1.95-1.39,4.31-1.52,5.41-.15,1.38.33,2.42,1.41,2.95.9.44,1.74.57,4.17.57,2.02,0,3.49-.09,4.24-.28,1.1-.25,2.32-.94,3.17-1.76,1.1-1.04,1.42-1.7,2.47-4.9l4.61-14.18h-5.69ZM91.51,193.35c-1.08-.53-2.42-.72-5.23-.72-3.42,0-5.15.25-6.81.94-2.39,1.04-3.81,2.39-4.98,4.71-1.15,2.39-3.16,8.52-3.36,10.34-.18,1.6.14,2.77.98,3.68,1.16,1.2,2.76,1.6,6.49,1.6,3.26,0,5.25-.28,6.88-.97,2.25-.91,3.74-2.39,4.96-4.84,1.02-2.04,3.06-8.45,3.25-10.22.25-2.23-.45-3.65-2.19-4.53M87.53,199.33c-.1.91-1.21,4.59-1.94,6.35-1.14,2.86-1.96,3.43-4.96,3.43-2.82,0-3.47-.38-3.31-1.82.08-.72.51-2.33,1.21-4.34,1.13-3.36,1.26-3.65,1.87-4.34.83-.91,1.65-1.16,3.96-1.16,2.72,0,3.34.38,3.17,1.89M84.91,189.52c.41,0,.68.13,1.72.75.77.5,1.5.72,2.23.72,1.64,0,2.94-.88,4.58-3.05l-2.08-.94c-.74,1.01-1.26,1.38-1.92,1.38-.51,0-.81-.13-1.96-.82-.77-.47-1.44-.69-2.04-.69-1.58,0-2.81.79-4.7,3.02l2.07,1.01c.74-.97,1.39-1.38,2.11-1.38M165.95,193.35c-1.08-.53-2.42-.72-5.23-.72-3.42,0-5.15.25-6.81.94-2.39,1.04-3.81,2.39-4.98,4.71-1.15,2.39-3.16,8.52-3.36,10.34-.18,1.6.14,2.77.98,3.68,1.16,1.2,2.76,1.6,6.5,1.6,3.26,0,5.25-.28,6.88-.97,2.25-.91,3.74-2.39,4.96-4.84,1.02-2.04,3.06-8.45,3.25-10.22.25-2.23-.45-3.65-2.19-4.53M161.96,199.33c-.1.91-1.2,4.59-1.94,6.35-1.14,2.86-1.96,3.43-4.97,3.43-2.81,0-3.47-.38-3.31-1.82.08-.72.51-2.33,1.21-4.34,1.13-3.36,1.26-3.65,1.87-4.34.83-.91,1.65-1.16,3.96-1.16,2.72,0,3.34.38,3.17,1.89M114.63,201.9h-9.52l-1.25,3.86h3.92c-.82,2.86-1.74,3.46-5.19,3.46-2.4,0-3.17-.5-3.01-1.92.1-.85.61-2.67,1.74-5.94,1.17-3.39,2.09-4.06,5.67-4.06,2.37,0,3.06.38,2.86,1.57l-.08.44h5.72c.35-1.13.48-1.79.56-2.48.23-2.04-.38-3.14-2.11-3.74-.97-.35-2.23-.47-5.07-.47-3.51,0-5.01.16-6.53.69-2.34.82-4.05,2.26-5.27,4.43-1.09,1.89-3.42,8.93-3.64,10.91-.17,1.54.21,2.99,1.04,3.77,1.2,1.16,2.52,1.48,6.38,1.48s5.52-.19,6.84-.66c2.5-.88,4.01-2.52,5.1-5.5q.32-.88,1.65-5.22l.19-.63ZM120.99,192.79l-6.81,20.97h5.66l6.81-20.97h-5.66ZM139.78,199.33h5.38c.46-1.32.67-2.04.76-2.89.12-1.1-.18-2.14-.75-2.64-1.01-.88-2.46-1.16-6.29-1.16-4.81,0-7.01.5-8.64,2.01-1.34,1.23-2.73,4.4-3.01,6.88-.2,1.79.51,2.83,2.26,3.3,1.02.25,2.64.41,6.07.63,1.88.13,2.3.38,2.2,1.26-.13,1.13-.74,2.11-1.58,2.52-.53.25-.73.28-2.47.28-2.47,0-2.56,0-3.07-.28-.3-.19-.44-.57-.4-1.01.04-.35.1-.6.33-1.26h-5.38c-.52,1.57-.7,2.33-.8,3.21-.12,1.07.21,2.07.79,2.55,1.16.91,2.84,1.19,7.17,1.19,3.04,0,4.58-.19,6.03-.72,2.14-.79,3.29-2.01,4.3-4.53.56-1.35,1.08-3.14,1.16-3.93.17-1.54-.47-2.58-1.9-3.08-1.22-.41-1.25-.41-6.27-.79-2.2-.13-2.47-.28-2.37-1.19.08-.72.42-1.54.85-1.98.54-.6,1.38-.79,3.38-.79s2.66.28,2.55,1.23c-.03.31-.1.57-.32,1.2M223.9,192.79h-6.8l-8.03,7.95h-1.71l2.59-7.95h-5.66l-6.81,20.97h5.66l2.69-8.27h1.74l3.19,8.27h6.93l-4.58-10.65,10.79-10.31ZM188.23,193.35c-1.08-.53-2.42-.72-5.23-.72-3.42,0-5.15.25-6.81.94-2.39,1.04-3.81,2.39-4.98,4.71-1.15,2.39-3.16,8.52-3.36,10.34-.18,1.6.14,2.77.98,3.68,1.16,1.2,2.76,1.6,6.49,1.6,3.26,0,5.25-.28,6.88-.97,2.25-.91,3.74-2.39,4.96-4.84,1.02-2.04,3.06-8.45,3.25-10.22.25-2.23-.45-3.65-2.19-4.53M184.25,199.33c-.1.91-1.21,4.59-1.94,6.35-1.14,2.86-1.96,3.43-4.96,3.43-2.82,0-3.47-.38-3.31-1.82.08-.72.51-2.33,1.21-4.34,1.13-3.36,1.26-3.65,1.87-4.34.83-.91,1.65-1.16,3.96-1.16,2.72,0,3.34.38,3.17,1.89M352.01,192.79l-4.33,13.39c-.81,2.48-1.46,2.92-4.18,2.92s-3.35-.31-3.23-1.38c.03-.25.16-.85.3-1.26l4.46-13.67h-5.69l-4.42,13.67c-.44,1.35-.76,2.61-.84,3.27-.18,1.63.39,2.77,1.71,3.39,1.29.6,2.7.79,6.17.79s5.28-.28,6.87-1.16c1.82-1.04,2.85-2.29,3.77-4.62.62-1.63.71-1.82.8-2.11l4.28-13.23h-5.66ZM321.11,192.79h-6.8l-8.03,7.95h-1.71l2.59-7.95h-5.66l-6.81,20.97h5.66l2.69-8.27h1.74l3.19,8.27h6.93l-4.58-10.65,10.79-10.31ZM382.83,192.79l-6.82,20.97h5.66l6.81-20.97h-5.66ZM375.74,201.56c.99-.94,1.98-3.3,2.19-5.22.28-2.55-1.12-3.55-4.95-3.55h-11.48l-6.81,20.97h11.58c1.42,0,2.77-.16,3.78-.41,1.66-.44,3.2-1.79,3.96-3.49.6-1.38,1.09-2.99,1.21-4.09.12-1.1-.38-1.98-1.36-2.33-.43-.16-.74-.22-1.46-.28l.04-.09c1.25-.16,2.49-.72,3.3-1.51M369.27,207.4c-.26.63-.45.91-.86,1.19-.52.38-1.42.53-2.81.53h-3.73l1.31-4.09h4.14q1.61.06,1.85.19c.33.16.48.5.43.94-.02.22-.18.76-.33,1.23M371.79,198.38c-.1.85-.59,1.89-1.08,2.33q-.49.44-2.68.47h-3.61l1.24-3.77h4.55c1.3,0,1.65.22,1.57.98M328.84,192.79h-5.66l-6.81,20.97h14.52l1.58-4.81h-8.86l5.24-16.16ZM218.24,213.75h5.88l2.17-3.61h7.59l-.08,3.61h5.76l.4-20.97h-8.57l-13.14,20.97ZM234.08,206.08h-5.25l5.56-9.12-.32,9.12ZM291.93,192.79l-6.82,20.97h5.66l6.81-20.97h-5.66ZM263.03,193.41c-.84-.44-2.14-.63-4.48-.63h-10.63l-6.81,20.97h5.66l1.82-5.56h4.21c1.33,0,1.85.47,1.72,1.57-.04.35-.15.79-.26,1.2l-.91,2.8h5.75l1.25-3.83c.19-.57.26-.91.3-1.32.19-1.73-.75-2.67-2.79-2.76l.05-.22c2.3-.5,3.14-.91,4.01-1.98,1.06-1.29,2.44-4.87,2.67-6.98.16-1.45-.41-2.61-1.57-3.24M258.21,198.95c-.05.47-.62,2.2-.96,2.96-.5,1.13-1.22,1.54-2.64,1.54h-4.49l1.88-5.85h4.24c1.68,0,2.09.28,1.97,1.35M286.72,197.88c.26-2.33-.87-4.15-2.93-4.68-.92-.25-2.2-.41-3.31-.41h-11.04l-6.81,20.97h10.72c3.73,0,6.06-.72,7.94-2.58,1.75-1.76,2.32-2.92,3.99-8.08q1.28-3.8,1.43-5.22M280.45,199.61c-.06.57-.45,2.07-.92,3.49-.95,2.83-1.41,3.9-2.06,4.62-.83.91-1.59,1.23-3.01,1.23h-4.59l3.65-11.28h4.59c1.87,0,2.5.53,2.35,1.95"/>
    <path class="cls-10" d="M464.23,42.8h-79.02l-2.47,2-23.04,18.67,3.39-8.33,5.02-12.34h-124.27l-2.47,2-23.05,18.67,3.39-8.33,5.02-12.34h-126.11l-2.01,6.19-18.65,57.35c-.73,2.26-2.78,3.7-5.23,3.7h-12.87l-2.52,2.16-40.99,35.18L0,163.15h79.49c1.29,0,2.53-.02,3.74-.06l29.1,11.52-3.64,11.26h228.27l3.4-10.52,36.3-12.2h64.23l-11.69-14.57-35.92-44.78,52.62-45.24,18.33-15.76Z"/>
    <path class="cls-6" d="M440.06,51.77h-51.67l-50.11,40.59,16.5-40.59h-46.2l-30.58,94.07-8.19-8.83-30.33-34.35,59.19-50.88h-51.67l-50.11,40.59,16.5-40.59h-46.2l-33.28,102.42h47.99l13.07-41.66,37.2,41.66h91.11l13.07-41.66,33.62,41.66h52.23l-41.34-51.54,59.19-50.88ZM153.15,51.77h-46.02l-18.65,57.35c-1.92,5.95-7.41,9.9-13.75,9.9h-9.55l-40.99,35.18h55.29c9.77,0,16.11-1.27,22.61-3.83,6.49-2.55,11.99-6.31,16.48-11.28,4.5-4.96,8.26-11.09,11.3-18.38,3.03-7.29,6.05-15.67,9.05-25.15l14.22-43.79Z"/>
    <polygon class="cls-13" points="118.62 179.77 123.78 163.81 193.18 163.81 188.02 179.77 118.62 179.77"/>
    <polygon class="cls-6" points="331.45 179.77 259.13 179.77 264.29 163.81 336.6 163.81 331.45 179.77"/>
    <path class="cls-6" d="M646.28,98.14c-2.71,0-5.09,2.1-5.09,4.85,0,2.1,1.49,3.6,3.68,3.6,2.75,0,5.18-2.1,5.18-4.81,0-2.15-1.54-3.64-3.78-3.64M636.69,132.58h7.79s4.12-24.5,4.12-24.5h-7.8s-4.12,24.5-4.12,24.5ZM596.74,183.17c-3.08,0-5.51,1.68-6.67,3.12l.42-2.52h-7.61s-4.12,24.5-4.12,24.5h7.79s2.43-14.6,2.43-14.6c.33-1.96,1.82-3.5,3.97-3.5,1.87,0,2.99,1.22,2.61,3.5l-2.43,14.61h7.79s2.3-13.58,2.3-13.58c.84-5,1.17-11.53-6.48-11.53M605.09,107.45c-8.08,0-14.43,6.9-14.43,14.93,0,6.16,3.96,10.78,11.1,10.79,6.35,0,10.36-3.96,11.3-5.41l-4.48-3.97c-.56.7-2.62,2.61-5.56,2.61-2.89,0-4.67-1.87-4.48-4.06h16.06c.14-.55.61-2.46.61-4.38,0-6.53-3.5-10.5-10.12-10.51M607.51,117.39h-7.94c.47-1.73,2.01-3.64,4.58-3.64,2.43,0,3.59,1.68,3.36,3.64M674.08,129.66l3.61-21.56h-7.28s-.33,1.91-.33,1.91c-.56-.79-2.61-2.52-6.21-2.53-7.93,0-14.38,6.43-14.38,15.21,0,6.21,3.5,10.5,9.66,10.51,3.73,0,6.35-1.86,6.95-2.47l-.09.61c-.51,2.99-3.5,3.64-6.4,3.64-3.31,0-5.88-1.17-6.53-1.5l-3.27,5.97c2.01,1.12,5.23,2.1,8.68,2.1,7.28,0,14.1-2.84,15.6-11.89M661.81,126.34c-2.75,0-4.39-2.01-4.39-4.95,0-4.2,2.71-7.05,6.35-7.05,2.89,0,4.43,2.15,4.43,4.9,0,4.34-2.85,7.09-6.4,7.09M651.77,171.37h7.79s2.3-13.58,2.3-13.58c.84-5,1.17-11.53-6.48-11.53-3.08,0-5.51,1.68-6.68,3.12l.42-2.52h-7.61s-4.12,24.5-4.12,24.5h7.79s2.44-14.6,2.44-14.6c.33-1.96,1.82-3.5,3.97-3.5,1.87,0,2.99,1.22,2.61,3.5l-2.43,14.61ZM612.52,146.85l-4.12,24.5h7.79s1.83-10.82,1.83-10.82c.61-3.69,2.34-6.44,6.12-6.44.56,0,.93.05,1.26.09l1.31-7.94c-3.03,0-5.55,1.49-7.14,3.87l.56-3.27h-7.61ZM636.96,146.86h-7.79s-4.12,24.5-4.12,24.5h7.79s4.12-24.5,4.12-24.5ZM624.96,126.88c-2.19,0-3.87-.98-4.99-2.15l-5.09,4.24c1.54,2.01,4.48,4.21,9.15,4.21,6.16,0,11.06-3.17,11.07-8.91,0-7.33-9.75-6.49-9.75-9.2,0-.79.8-1.35,2.01-1.35,1.91,0,3.13,1.17,3.73,1.92l5.7-3.96c-1.26-2.01-3.96-4.2-8.49-4.21-5.83,0-10.41,3.31-10.41,8.54,0,7.37,9.61,6.91,9.61,9.39,0,.93-.94,1.49-2.52,1.49M634.63,136.92c-2.71,0-5.09,2.1-5.09,4.85,0,2.1,1.49,3.6,3.68,3.6,2.75,0,5.18-2.1,5.18-4.8,0-2.15-1.54-3.64-3.78-3.64M696.08,107.5c-3.08,0-5.51,1.68-6.68,3.12l.42-2.52h-7.61s-4.12,24.5-4.12,24.5h7.8s2.43-14.6,2.43-14.6c.33-1.96,1.82-3.5,3.97-3.5,1.87,0,2.98,1.22,2.61,3.5l-2.44,14.61h7.8s2.29-13.58,2.29-13.58c.84-5,1.17-11.53-6.48-11.53M689.91,168.06c0-2.29-1.63-4.06-3.97-4.06-2.85,0-5.46,2.42-5.46,5.27,0,2.24,1.59,4.02,3.92,4.02,2.8,0,5.51-2.42,5.51-5.22M684.92,174.58l-5.67,33.74h7.8s5.67-33.74,5.67-33.74h-7.8ZM710.2,123.94c-2.85,0-5.46,2.42-5.46,5.27,0,2.24,1.59,4.01,3.92,4.02,2.8,0,5.51-2.42,5.51-5.22,0-2.29-1.63-4.06-3.97-4.06M583.68,171.34h7.98s1.92-11.43,1.92-11.43h3.83c7.19,0,12.51-5.26,12.52-12.59,0-5.27-3.22-8.64-9-8.64h-11.76s-5.48,32.66-5.48,32.66ZM596.01,145.53h2.71c1.87,0,2.89,1.22,2.89,2.99,0,2.52-1.54,4.53-4.25,4.53h-2.61s1.26-7.52,1.26-7.52ZM696.95,199.66c-2.85,0-5.46,2.42-5.46,5.27,0,2.24,1.59,4.02,3.92,4.02,2.8,0,5.51-2.42,5.51-5.22,0-2.29-1.63-4.06-3.97-4.06M672.51,174.58l-5.67,33.75h7.79s5.67-33.74,5.67-33.74h-7.8ZM616.52,189.44c1.92,0,3.13,1.17,3.73,1.92l5.7-3.96c-1.26-2.01-3.97-4.2-8.49-4.21-5.83,0-10.41,3.31-10.41,8.54,0,7.38,9.61,6.91,9.61,9.39,0,.93-.93,1.49-2.52,1.49-2.19,0-3.87-.98-4.99-2.15l-5.09,4.24c1.54,2.01,4.48,4.2,9.15,4.21,6.16,0,11.07-3.17,11.07-8.91,0-7.33-9.75-6.49-9.75-9.2,0-.79.79-1.35,2.01-1.35M637.12,190.1h4.15s1.08-6.3,1.08-6.3h-4.15s.84-5.18.84-5.18h-7.79s-.84,5.18-.84,5.18h-2.38s-1.08,6.3-1.08,6.3h2.38s-1.45,8.64-1.45,8.64c-1.22,7.28,1.67,9.94,7.46,9.95,1.96,0,3.03-.28,3.03-.28l1.12-6.67c-.51.05-.89.05-1.31.05-1.59,0-2.94-.52-2.56-2.66l1.5-9.01ZM673.47,171.76c1.96,0,3.03-.28,3.03-.28l1.12-6.67c-.51.05-.89.05-1.31.05-1.59,0-2.94-.52-2.56-2.66l1.5-9.01h4.15s1.08-6.3,1.08-6.3h-4.15s.84-5.18.84-5.18h-7.8s-.84,5.18-.84,5.18h-2.38s-1.08,6.3-1.08,6.3h2.38s-1.45,8.64-1.45,8.64c-1.22,7.28,1.68,9.94,7.46,9.95M656.18,183.2c-4.06,0-7.84,1.3-10.74,3.03l2.38,5.23c2.1-.93,4.15-1.54,6.3-1.54,2.52,0,3.5,1.17,3.27,2.66l-.14.89c-.79-.37-2.43-.89-4.58-.89-6.44,0-11.02,3.82-11.02,9.33,0,4.53,3.54,7,7.88,7.01,2.52,0,4.39-.7,5.88-1.96l.19,1.35h6.96s2.53-15.16,2.53-15.16c.94-5.6-1.16-9.94-8.91-9.95M652.53,202.95c-1.63,0-2.89-.8-2.89-2.2,0-1.77,1.68-2.94,3.74-2.94,1.68,0,2.89.79,2.89,2.24,0,1.87-1.68,2.89-3.74,2.89M571.05,175.6l-5.48,32.67h7.98s5.48-32.67,5.48-32.67h-7.98ZM686.64,45.16c-2.51,0-4.41,1.8-4.41,4.31,0,2.46,1.89,4.27,4.4,4.27,2.51,0,4.46-1.8,4.46-4.26,0-2.51-1.94-4.31-4.45-4.31M657.01,33.71l-97.19-10.27-13.28,79.09,18.23-1.12-5.22,31.12h9.62c11.95.01,20.26-7.45,20.27-19.12,0-6.74-3.51-11.34-9.65-12.92l102.94-6.31,37.2,6.58,12.58-74.95-75.5,7.89ZM581.03,114.3c0,7.33-4.44,11.34-10.7,11.34h-1.63s3.14-18.86,3.14-18.86h1.63c4.67,0,7.56,2.57,7.56,7.52M580.58,80.24c-7.44,0-10.42-5.41-11.27-7.92l6.78-3.36c.9,1.94,2.7,3.7,4.97,3.7,1.94,0,2.94-.85,2.94-2.32,0-4.41-13.74-4.04-13.74-14.65,0-5.97,4.32-9.85,10.91-9.85,7.11,0,9.85,5.17,10.71,7.68l-6.73,3.08c-.66-1.47-1.66-3.27-4.17-3.27-1.56,0-2.61.95-2.61,2.23,0,4.5,13.84,4.04,13.83,14.18,0,6.11-4.37,10.52-11.62,10.52M608.82,79.74s-1.04.28-3.03.28c-5.88,0-9.29-2.71-9.28-10.1v-8.77s-2.41,0-2.41,0v-6.4s2.42,0,2.42,0v-5.26s7.92,0,7.92,0v5.26s4.22,0,4.22,0v6.4s-4.22,0-4.22,0v9.15c0,2.18,1.46,2.7,3.07,2.7.43,0,.81,0,1.33-.05v6.78ZM620.43,79.65h-7.91s.01-24.88.01-24.88h7.91s-.01,24.88-.01,24.88ZM616.42,53.25c-2.51,0-4.41-1.8-4.41-4.27,0-2.51,1.9-4.31,4.41-4.31,2.51,0,4.45,1.8,4.45,4.31,0,2.46-1.95,4.26-4.46,4.26M637.73,73.31c1.85,0,3.6-.85,4.69-1.75l2.08,6.49c-1.66,1.14-4.17,2.22-7.3,2.22-7.91,0-13.5-5.41-13.5-13.04,0-7.63,5.79-13.08,13.47-13.07,3.22,0,5.64,1.05,7.39,2.28l-2.14,6.68c-1.37-1.14-3.13-1.85-4.97-1.85-3.74,0-5.83,2.6-5.83,5.92,0,3.65,2.46,6.12,6.11,6.12M682.52,90.12l-13.73-31.9-5.6,7.94,8.67,13.51h-9.29s-6.96-11.62-6.96-11.62v11.61s-7.92,0-7.92,0l.02-34.27h7.91s-.01,19.39-.01,19.39l6.74-10h4.97s-7.11-16.52-7.11-16.52l31.57,44.11c-5.71.52-8.51,4.32-9.24,7.73M717.15,96.83l-31.39-5.55c.09-.7.34-1.54.83-2.37.99-1.53,2.55-2.93,6.17-3.5,2.92-.46,5.05-.37,5.05-.37l-7.16-10v-19.77s-7.9,0-7.9,0v8.72s-19.67-27.49-19.67-27.49l65.36-6.83-11.28,67.18ZM704.06,70.81v-9.15s4.22,0,4.22,0v-6.4s-4.21,0-4.21,0v-5.26s-7.91,0-7.91,0v5.26s-2.42,0-2.42,0v6.4s2.41,0,2.41,0v8.77c0,7.39,3.4,10.1,9.28,10.1,1.99,0,3.03-.28,3.03-.28v-6.78c-.52.05-.9.05-1.32.05-1.61,0-3.08-.52-3.08-2.7"/>
    <polygon class="cls-3" points="922.81 106.87 959.55 50.29 942.18 50.29 922.81 80.12 903.44 50.29 892.41 50.29 909.95 32.75 889.26 32.83 849.1 72.99 849.1 42.27 834.53 56.94 834.53 108.17 849.1 93.6 859.85 82.85 878.92 101.92 899.53 101.92 878.41 80.79 861.91 80.79 888.56 54.14 922.81 106.87"/>
  </g>
  <text class="cls-7" transform="translate(801.22 150.55)"><tspan x="0" y="0">KAL</tspan><tspan class="cls-14" x="100.98" y="0">D</tspan><tspan x="135.69" y="0">A</tspan></text>
  <text class="cls-5" transform="translate(818.19 185.87)"><tspan x="0" y="0">VIS</tspan><tspan class="cls-15" x="53.4" y="0">U</tspan><tspan x="76.01" y="0">ALS</tspan></text>
  <g class="cls-11">
    <path class="cls-6" d="M1049.5,38.38h21.11v9.71c-2.52,1.44-4.47,3.29-5.86,5.54-2.3,3.64-3.85,7.95-4.65,12.92l-.8,4.9c-.27,1.55-.84,2.77-1.73,3.65-.88.88-1.99,1.32-3.33,1.32s-2.53-.48-3.41-1.44c-.88-.96-1.32-2.22-1.32-3.77v-32.83ZM1112.75,38.38v94.31c0,2.09.4,3.59,1.2,4.49.43.54.83.87,1.21,1,.37.13,1.6.47,3.69,1,2.57.59,3.85,2.06,3.85,4.41,0,1.39-.7,2.52-2.09,3.37-1.02.64-2.73.96-5.14.96h-41.1c-2.36,0-4.13-.36-5.34-1.08-1.21-.72-1.81-1.81-1.81-3.25,0-2.35,1.28-3.82,3.85-4.41,2.09-.53,3.32-.87,3.69-1,.37-.13.75-.47,1.12-1,.8-.91,1.21-2.41,1.21-4.49V38.38h35.64ZM1140.52,38.38v32.83c0,1.55-.44,2.81-1.32,3.77-.88.96-2.02,1.44-3.41,1.44s-2.45-.44-3.33-1.32c-.88-.88-1.46-2.1-1.73-3.65l-.8-4.9c-.8-4.98-2.36-9.28-4.66-12.92-1.44-2.25-3.4-4.09-5.86-5.54v-9.71h21.11Z"/>
    <path class="cls-6" d="M1194.22,38.38v94.31c0,2.09.4,3.59,1.21,4.49.43.54.83.87,1.2,1,.37.13,1.6.47,3.69,1,2.57.59,3.85,2.06,3.85,4.41,0,1.39-.69,2.52-2.09,3.37-1.02.64-2.7.96-5.06.96h-40.62c-1.93,0-3.41-.36-4.45-1.08-1.04-.72-1.57-1.75-1.57-3.09,0-2.19,1.07-3.64,3.21-4.33,1.77-.59,2.8-.95,3.09-1.08.29-.13.6-.44.92-.92.64-.85.96-2.22.96-4.09V52.99c0-1.87-.32-3.24-.96-4.09-.32-.48-.63-.79-.92-.92-.29-.13-1.32-.49-3.09-1.08-2.14-.69-3.21-2.14-3.21-4.33,0-1.34.52-2.37,1.57-3.09,1.05-.72,2.53-1.08,4.45-1.08h37.81ZM1218.86,94.24c4.92.75,8.71,1.58,11.36,2.49,2.65.91,5.04,2.14,7.18,3.69,2.25,1.66,3.97,3.64,5.18,5.94,1.2,2.3,1.81,4.74,1.81,7.3v16.62c0,1.71.56,2.57,1.69,2.57.43,0,.79-.12,1.08-.36.29-.24.71-.71,1.25-1.4,1.34-1.82,2.7-2.73,4.09-2.73.91,0,1.82.48,2.73,1.45.91.96,1.36,1.93,1.36,2.89,0,1.66-.79,3.68-2.37,6.06-1.58,2.38-3.54,4.51-5.9,6.38-2.19,1.77-4.58,3.04-7.14,3.81-2.57.78-5.59,1.16-9.07,1.16-7.06,0-12.58-2.02-16.54-6.06-3.96-4.04-5.94-9.67-5.94-16.9v-13.48c0-3-.03-4.74-.08-5.22-.27-2.14-1.02-3.99-2.25-5.54-1.55-1.87-3.77-2.97-6.66-3.29v-8.59c2.89-.43,4.95-1.18,6.18-2.25,1.07-.96,1.81-2.06,2.21-3.29.4-1.23.6-3.05.6-5.46v-21.27c0-3.37-.66-5.89-1.97-7.55-1.31-1.66-3.68-2.97-7.1-3.93v-8.91h2.09c5.94,0,11,.21,15.17.64,6.21.59,11.74,2.62,16.61,6.1,7.01,4.98,10.51,12.07,10.51,21.27,0,7.55-2.36,13.73-7.06,18.54-1.98,2.03-4.29,3.69-6.94,4.98-2.65,1.28-6.68,2.73-12.08,4.33"/>
    <path class="cls-6" d="M1309.16,38.38v109.56h-37.8c-1.93,0-3.41-.36-4.45-1.08s-1.57-1.75-1.57-3.09c0-2.19,1.07-3.64,3.21-4.33,1.77-.59,2.8-.95,3.09-1.08.29-.13.6-.44.92-.92.64-.86.96-2.22.96-4.09V52.99c0-1.87-.32-3.24-.96-4.09-.32-.48-.63-.79-.92-.92-.3-.13-1.32-.49-3.09-1.08-2.14-.69-3.21-2.14-3.21-4.33,0-1.34.52-2.37,1.57-3.09,1.04-.72,2.53-1.08,4.45-1.08h37.8ZM1334.13,91.19c4.81.96,8.52,1.9,11.12,2.81,2.59.91,4.94,2.06,7.02,3.45,3.59,2.3,6.33,5.34,8.23,9.11,1.9,3.77,2.85,7.99,2.85,12.64,0,9.15-3.37,16.29-10.11,21.43-3.48,2.68-7.32,4.56-11.52,5.66-4.2,1.1-9.7,1.65-16.49,1.65h-9.55v-8.43c2.14-.16,3.83-.47,5.06-.92,1.23-.45,2.33-1.22,3.29-2.29,1.77-1.98,2.65-5.06,2.65-9.23v-18.22c0-2.67-.23-4.76-.68-6.26-.46-1.5-1.3-2.86-2.53-4.09-.91-.96-1.9-1.66-2.97-2.09-1.07-.43-2.6-.78-4.58-1.04v-8.35c1.98-.16,3.52-.43,4.61-.8,1.1-.37,2.1-.99,3.01-1.85.85-.8,1.58-1.85,2.17-3.13.59-1.28.91-2.46.96-3.53v-18.3c0-1.44-.24-2.96-.72-4.54-.48-1.58-1.07-2.82-1.76-3.73-1.02-1.23-2.16-2.14-3.41-2.73-1.26-.59-2.96-.99-5.1-1.2v-8.83h9.23c12.2,0,21.51,2.52,27.93,7.55,2.94,2.3,5.19,5.08,6.74,8.35,1.55,3.27,2.33,6.8,2.33,10.6s-.79,7.28-2.37,10.6c-1.58,3.32-3.79,6.07-6.62,8.27-2.09,1.71-4.49,3.11-7.22,4.17-2.73,1.07-6.58,2.17-11.56,3.29"/>
    <path class="cls-6" d="M1049.2,172.11h5.51c3.07,0,5.15.13,6.24.39,1.64.39,2.98,1.23,4,2.51,1.03,1.28,1.54,2.86,1.54,4.74,0,1.56-.35,2.94-1.06,4.12-.71,1.18-1.72,2.08-3.04,2.68-1.31.61-3.13.92-5.45.93l9.94,13.32h-3.42l-9.94-13.32h-1.56v13.32h-2.76v-28.68ZM1051.97,174.92v9.75l4.76.04c1.85,0,3.21-.18,4.09-.55.89-.36,1.58-.95,2.07-1.74.49-.8.74-1.69.74-2.68s-.25-1.84-.75-2.62c-.5-.79-1.16-1.35-1.98-1.69-.82-.34-2.17-.51-4.07-.51h-4.88Z"/>
    <path class="cls-6" d="M1092.36,179.58v21.21h-2.59v-3.65c-1.1,1.39-2.34,2.44-3.71,3.14-1.37.7-2.87,1.05-4.5,1.05-2.89,0-5.37-1.09-7.42-3.27s-3.07-4.83-3.07-7.95,1.04-5.67,3.1-7.84c2.07-2.17,4.55-3.26,7.46-3.26,1.68,0,3.2.37,4.56,1.11,1.36.74,2.55,1.85,3.58,3.33v-3.9h2.59ZM1081.85,181.67c-1.46,0-2.82.37-4.06,1.12-1.24.75-2.22,1.79-2.96,3.15-.73,1.35-1.1,2.78-1.1,4.28s.37,2.92,1.11,4.29c.74,1.36,1.73,2.42,2.98,3.18,1.25.76,2.58,1.14,4.01,1.14s2.8-.38,4.09-1.13c1.29-.75,2.28-1.77,2.98-3.06.69-1.29,1.04-2.73,1.04-4.34,0-2.45-.78-4.51-2.34-6.15-1.56-1.65-3.48-2.47-5.75-2.47"/>
    <polygon class="cls-6" points="1098.27 171.39 1100.9 171.39 1100.9 188.14 1110.38 179.58 1114.24 179.58 1103 189.7 1114.9 200.79 1111.2 200.79 1100.9 191.24 1100.9 200.79 1098.27 200.79 1098.27 171.39"/>
    <path class="cls-6" d="M1134.83,193.76l2.22,1.21c-.73,1.48-1.57,2.68-2.52,3.59-.95.91-2.03,1.6-3.22,2.08-1.19.47-2.54.71-4.05.71-3.34,0-5.95-1.13-7.83-3.4-1.88-2.27-2.82-4.83-2.82-7.69,0-2.69.8-5.09,2.39-7.2,2.02-2.68,4.72-4.02,8.11-4.02s6.27,1.37,8.35,4.11c1.48,1.94,2.23,4.36,2.26,7.25h-18.4c.05,2.46.81,4.48,2.28,6.06,1.47,1.58,3.28,2.36,5.44,2.36,1.04,0,2.05-.19,3.04-.56.98-.37,1.82-.87,2.51-1.49.69-.62,1.44-1.63,2.24-3.01M1134.83,188.04c-.35-1.46-.86-2.62-1.53-3.49s-1.56-1.57-2.66-2.11c-1.1-.53-2.26-.8-3.48-.8-2.01,0-3.73.67-5.18,2.01-1.05.97-1.85,2.44-2.39,4.39h15.24Z"/>
    <path class="cls-6" d="M1142.63,179.58h2.63v3.8c1.05-1.45,2.22-2.54,3.5-3.27,1.28-.72,2.67-1.08,4.17-1.08s2.88.4,4.07,1.21c1.19.81,2.06,1.89,2.62,3.26.57,1.36.85,3.49.85,6.38v10.92h-2.63v-10.12c0-2.44-.1-4.08-.29-4.89-.3-1.4-.89-2.46-1.75-3.17-.87-.71-1.99-1.06-3.38-1.06-1.59,0-3.02.55-4.28,1.64-1.26,1.09-2.09,2.44-2.49,4.06-.25,1.05-.37,2.98-.37,5.77v7.78h-2.63v-21.21Z"/>
    <path class="cls-6" d="M1166.1,179.58h2.63v3.8c1.05-1.45,2.22-2.54,3.5-3.27,1.28-.72,2.67-1.08,4.17-1.08s2.88.4,4.07,1.21c1.18.81,2.06,1.89,2.62,3.26.57,1.36.85,3.49.85,6.38v10.92h-2.63v-10.12c0-2.44-.1-4.08-.29-4.89-.3-1.4-.89-2.46-1.75-3.17-.87-.71-1.99-1.06-3.38-1.06-1.59,0-3.02.55-4.28,1.64-1.26,1.09-2.09,2.44-2.49,4.06-.25,1.05-.37,2.98-.37,5.77v7.78h-2.63v-21.21Z"/>
    <path class="cls-6" d="M1189.25,179.58h2.63v9.91c0,2.42.12,4.08.37,4.99.38,1.3,1.1,2.33,2.16,3.08,1.06.75,2.33,1.13,3.79,1.13s2.71-.37,3.74-1.1c1.02-.73,1.73-1.7,2.12-2.89.26-.82.39-2.55.39-5.21v-9.91h2.69v10.41c0,2.93-.33,5.13-.99,6.61-.66,1.48-1.65,2.64-2.97,3.48-1.32.84-2.98,1.26-4.97,1.26s-3.66-.42-4.99-1.26c-1.33-.84-2.33-2.01-2.99-3.51-.66-1.5-.99-3.76-.99-6.78v-10.22Z"/>
    <path class="cls-6" d="M1223.27,181.9l-1.69,1.81c-1.41-1.42-2.78-2.12-4.13-2.12-.85,0-1.59.29-2.2.88-.61.58-.91,1.27-.91,2.05,0,.69.25,1.35.75,1.97.5.64,1.56,1.38,3.17,2.24,1.96,1.05,3.29,2.07,3.99,3.04.69.99,1.04,2.1,1.04,3.33,0,1.74-.59,3.22-1.77,4.43-1.18,1.21-2.66,1.81-4.42,1.81-1.18,0-2.31-.27-3.38-.8s-1.96-1.27-2.66-2.2l1.65-1.95c1.34,1.57,2.77,2.36,4.28,2.36,1.05,0,1.95-.35,2.69-1.05.74-.7,1.11-1.53,1.11-2.48,0-.78-.25-1.48-.74-2.09-.49-.6-1.6-1.35-3.32-2.26-1.85-.99-3.1-1.96-3.77-2.93-.66-.96-1-2.06-1-3.3,0-1.61.53-2.95,1.59-4.02,1.06-1.07,2.4-1.6,4.02-1.6,1.88,0,3.78.96,5.69,2.87"/>
    <polygon class="cls-6" points="1230.22 171.7 1232.85 171.7 1232.85 179.58 1237.03 179.58 1237.03 181.94 1232.85 181.94 1232.85 200.8 1230.22 200.8 1230.22 181.94 1226.63 181.94 1226.63 179.58 1230.22 179.58 1230.22 171.7"/>
    <path class="cls-6" d="M1250.66,179.03c3.15,0,5.76,1.18,7.83,3.55,1.88,2.16,2.82,4.71,2.82,7.66s-1,5.56-2.98,7.77c-1.99,2.22-4.55,3.32-7.67,3.32s-5.7-1.11-7.69-3.32c-1.99-2.22-2.98-4.81-2.98-7.77s.94-5.49,2.82-7.64c2.07-2.38,4.69-3.57,7.85-3.57M1250.64,181.7c-2.19,0-4.07.84-5.64,2.52-1.57,1.68-2.36,3.7-2.36,6.08,0,1.53.36,2.96,1.08,4.29s1.69,2.35,2.9,3.07c1.22.72,2.56,1.08,4.02,1.08s2.8-.36,4.02-1.08c1.22-.72,2.19-1.74,2.9-3.07.72-1.33,1.08-2.76,1.08-4.29,0-2.38-.79-4.41-2.37-6.08-1.58-1.68-3.46-2.52-5.63-2.52"/>
    <path class="cls-6" d="M1267.09,170.84c.6,0,1.11.22,1.53.66.42.44.64.97.64,1.6s-.21,1.14-.64,1.58c-.42.44-.94.66-1.53.66s-1.09-.22-1.52-.66c-.42-.44-.64-.97-.64-1.58s.21-1.16.64-1.6c.42-.44.93-.66,1.52-.66M1265.79,179.58h2.63v21.21h-2.63v-21.21Z"/>
    <path class="cls-6" d="M1273.87,179.58h2.63v3.67c.91-1.35,1.86-2.34,2.82-2.96,1.33-.83,2.73-1.25,4.2-1.25.99,0,1.93.2,2.82.61.89.4,1.62.94,2.18,1.61.56.67,1.05,1.63,1.47,2.88.88-1.66,1.97-2.93,3.28-3.79,1.31-.86,2.72-1.3,4.24-1.3,1.41,0,2.66.37,3.74,1.11,1.08.74,1.89,1.77,2.41,3.1.53,1.32.79,3.31.79,5.97v11.58h-2.69v-11.58c0-2.27-.15-3.84-.47-4.69-.31-.85-.85-1.54-1.6-2.06-.76-.52-1.66-.78-2.71-.78-1.27,0-2.44.39-3.49,1.17s-1.83,1.82-2.31,3.12c-.49,1.3-.73,3.47-.73,6.51v8.31h-2.63v-10.86c0-2.56-.15-4.3-.46-5.22-.31-.92-.84-1.65-1.61-2.2-.76-.55-1.67-.83-2.72-.83-1.22,0-2.35.38-3.41,1.14-1.06.76-1.84,1.78-2.35,3.07-.51,1.29-.76,3.26-.76,5.91v8.99h-2.63v-21.21Z"/>
    <path class="cls-6" d="M1310.91,170.84c.6,0,1.11.22,1.54.66.42.44.64.97.64,1.6s-.21,1.14-.64,1.58c-.43.44-.94.66-1.54.66s-1.09-.22-1.52-.66c-.42-.44-.64-.97-.64-1.58s.21-1.16.64-1.6c.43-.44.93-.66,1.52-.66M1309.6,179.58h2.63v21.21h-2.63v-21.21Z"/>
    <path class="cls-6" d="M1327.99,181.9l-1.69,1.81c-1.41-1.42-2.78-2.12-4.13-2.12-.85,0-1.59.29-2.2.88-.61.58-.91,1.27-.91,2.05,0,.69.25,1.35.75,1.97.5.64,1.56,1.38,3.17,2.24,1.96,1.05,3.29,2.07,3.99,3.04.69.99,1.04,2.1,1.04,3.33,0,1.74-.59,3.22-1.77,4.43-1.18,1.21-2.66,1.81-4.42,1.81-1.18,0-2.31-.27-3.38-.8s-1.96-1.27-2.66-2.2l1.65-1.95c1.34,1.57,2.77,2.36,4.28,2.36,1.05,0,1.95-.35,2.69-1.05.74-.7,1.11-1.53,1.11-2.48,0-.78-.25-1.48-.74-2.09-.49-.6-1.6-1.35-3.32-2.26-1.85-.99-3.1-1.96-3.77-2.93-.66-.96-1-2.06-1-3.3,0-1.61.53-2.95,1.59-4.02,1.06-1.07,2.4-1.6,4.02-1.6,1.88,0,3.78.96,5.69,2.87"/>
    <polygon class="cls-6" points="1334.94 171.7 1337.57 171.7 1337.57 179.58 1341.75 179.58 1341.75 181.94 1337.57 181.94 1337.57 200.8 1334.94 200.8 1334.94 181.94 1331.35 181.94 1331.35 179.58 1334.94 179.58 1334.94 171.7"/>
    <path class="cls-6" d="M1355.37,179.03c3.15,0,5.76,1.18,7.83,3.55,1.88,2.16,2.82,4.71,2.82,7.66s-1,5.56-2.98,7.77c-1.99,2.22-4.55,3.32-7.67,3.32s-5.7-1.11-7.69-3.32c-1.99-2.22-2.98-4.81-2.98-7.77s.94-5.49,2.82-7.64c2.07-2.38,4.69-3.57,7.85-3.57M1355.36,181.7c-2.19,0-4.07.84-5.64,2.52-1.57,1.68-2.36,3.7-2.36,6.08,0,1.53.36,2.96,1.08,4.29s1.69,2.35,2.9,3.07c1.22.72,2.56,1.08,4.02,1.08s2.8-.36,4.02-1.08c1.22-.72,2.19-1.74,2.9-3.07.72-1.33,1.08-2.76,1.08-4.29,0-2.38-.79-4.41-2.37-6.08-1.58-1.68-3.46-2.52-5.63-2.52"/>
  </g>
  <g class="cls-12">
    <g>
      <path class="cls-1" d="M1466.71,170.77l16.71-9.66-16.71-9.65"/>
      <path class="cls-1" d="M1600.42,170.77l-16.71-9.66,16.71-9.65"/>
      <path class="cls-9" d="M1600.38,170.77l22.26-12.85c2.03-1.17,3.27-3.33,3.27-5.67v-24.91c0-2.34-1.25-4.5-3.27-5.67l-18.98-10.96c-2.02-1.17-3.27-3.33-3.27-5.67v-59.33l-66.83,38.6-66.84-38.6v59.33c0,2.34-1.24,4.5-3.27,5.67l-18.98,10.96c-2.02,1.17-3.27,3.33-3.27,5.66v24.91c0,2.34,1.24,4.5,3.27,5.67l22.26,12.85v-19.29l66.84,38.6,66.83-38.6v19.29h0Z"/>
      <path class="cls-4" d="M1560.48,123.77c-3.99,0-7.22,3.23-7.22,7.22v5.99c0,1.43,0,2.14.44,2.59.44.44,1.16.44,2.59.44h9.72c1.43,0,2.14,0,2.59-.44.44-.44.44-1.16.44-2.59v-5.99c0-3.99-3.23-7.22-7.22-7.22h-1.35,0Z"/>
      <path class="cls-4" d="M1504.98,123.77c-3.98,0-7.22,3.23-7.22,7.22v5.99c0,1.43,0,2.14.44,2.59.44.44,1.16.44,2.59.44h9.72c1.43,0,2.14,0,2.59-.44.44-.44.44-1.16.44-2.59v-5.99c0-3.99-3.23-7.22-7.22-7.22h-1.36.02Z"/>
      <path class="cls-8" d="M1516.84,180.43l16.71,9.65,16.71-9.65-16.71-9.65-16.71,9.65Z"/>
      <path class="cls-1" d="M1600.38,45.71l-32.91,35.96c-.96,1.05-.21,2.74,1.21,2.74h31.7v-38.7h0Z"/>
      <path class="cls-1" d="M1466.71,45.71l32.91,35.96c.96,1.05.21,2.74-1.21,2.74h-31.7v-38.7Z"/>
    </g>
  </g>
</svg>